HIERARCHY
ROOT Root
{
	OFFSET 0.00000 0.00000 0.00000
	CHANNELS 6 Xposition Yposition Zposition Zrotation Xrotation Yrotation
	JOINT Hip
	{
		OFFSET 0 0 0	
		CHANNELS 3 Zrotation Xrotation Yrotation
		JOINT Tummy
		{
			OFFSET 0 0.04 0	
			CHANNELS 3 Zrotation Xrotation Yrotation
			JOINT ChestBottom
			{
				OFFSET 0 0.194 0	
				CHANNELS 3 Zrotation Xrotation Yrotation
				JOINT ChestTop
				{
					OFFSET 0 0.166 0	
					CHANNELS 3 Zrotation Xrotation Yrotation
					JOINT LeftCollar
					{
						OFFSET 0 0.1 0	
						CHANNELS 3 Zrotation Xrotation Yrotation
						JOINT LeftUpperArm
						{
							OFFSET 0.156 -0.02 0.03	
							CHANNELS 3 Zrotation Xrotation Yrotation
							JOINT LeftForeArm
							{
								OFFSET 0.035 -0.27 -0.01	
								CHANNELS 3 Zrotation Xrotation Yrotation
								JOINT LeftHand
								{
									OFFSET 0.01 -0.27 0.01	
									CHANNELS 3 Zrotation Xrotation Yrotation
									End Site
									{
										OFFSET 0 -0.15 0
									}
								}
							}
						}
					}
					JOINT RightCollar
					{
						OFFSET 0 0.1 0	
						CHANNELS 3 Zrotation Xrotation Yrotation
						JOINT RightUpperArm
						{
							OFFSET -0.156 -0.02 0.03	
							CHANNELS 3 Zrotation Xrotation Yrotation
							JOINT RightForeArm
							{
								OFFSET -0.035 -0.27 -0.01	
								CHANNELS 3 Zrotation Xrotation Yrotation
								JOINT RightHand
								{
									OFFSET -0.01 -0.27 0.01	
									CHANNELS 3 Zrotation Xrotation Yrotation
									End Site
									{
										OFFSET 0 -0.15 0
									}
								}
							}
						}
					}
					JOINT Neck
					{
						OFFSET 0 0.1 0	
						CHANNELS 3 Zrotation Xrotation Yrotation
						JOINT Head
						{
							OFFSET 0 0.127 0.03	
							CHANNELS 3 Zrotation Xrotation Yrotation
							End Site
							{
								OFFSET 0 0.127 0.03
							}
						}
					}
				}
			}
		}
	}
	JOINT LeftHip
	{
		OFFSET 0 0 0	
		CHANNELS 3 Zrotation Xrotation Yrotation
		JOINT LeftThigh
		{
			OFFSET 0.088 -0.06 0	
			CHANNELS 3 Zrotation Xrotation Yrotation
			JOINT LeftLowerLeg
			{
				OFFSET 0 -0.39 0.02	
				CHANNELS 3 Zrotation Xrotation Yrotation
				JOINT LeftFootTop
				{
					OFFSET 0 -0.43 -0.02	
					CHANNELS 3 Zrotation Xrotation Yrotation
					JOINT LeftFootFront
					{
						OFFSET 0 -0.07 0.085	
						CHANNELS 3 Zrotation Xrotation Yrotation
						End Site
						{
							OFFSET 0 -0.005 0.09
						}
					}
				}
				JOINT LeftHeel
				{
					OFFSET 0 -0.43 -0.02	
					CHANNELS 3 Zrotation Xrotation Yrotation
					End Site
					{
						OFFSET 0 -0.075 -0.05
					}
				}
			}
		}
	}
	JOINT RightHip
	{
		OFFSET 0 0 0	
		CHANNELS 3 Zrotation Xrotation Yrotation
		JOINT RightThigh
		{
			OFFSET -0.088 -0.06 0	
			CHANNELS 3 Zrotation Xrotation Yrotation
			JOINT RightLowerLeg
			{
				OFFSET 0 -0.39 0.02	
				CHANNELS 3 Zrotation Xrotation Yrotation
				JOINT RightFootTop
				{
					OFFSET 0 -0.43 -0.02	
					CHANNELS 3 Zrotation Xrotation Yrotation
					JOINT RightFootFront
					{
						OFFSET 0 -0.07 0.085	
						CHANNELS 3 Zrotation Xrotation Yrotation
						End Site
						{
							OFFSET 0 -0.005 0.09
						}
					}
				}
				JOINT RightHeel
				{
					OFFSET 0 -0.43 -0.02	
					CHANNELS 3 Zrotation Xrotation Yrotation
					End Site
					{
						OFFSET 0 -0.075 -0.05
					}
				}
			}
		}
	}
}
MOTION
Frames: 28
Frame Time: 0.05
0 0.9566 0 -0 0 -0 0.44135 -11.943 179.39 1.8686 -1.5874 7.1577 1.8686 -1.5874 7.1577 1.5564 -1.3493 6.0088 -0 0 -0 22.581 11.59 27.446 4.665 21.583 -6.2721 -0 0 -0 -0 0 -0 9.7305 -42.433 27.397 -12.058 -5.5292 -0.67211 -0 0 -0 0.035147 -16.852 11.72 3.4212 -18.102 18.042 0.44135 -11.943 179.39 -11.109 -13.975 -8.2738 -0 0 -0 -0 0 -0 -0 0 -0 -0 0 -0 0.44135 -11.943 179.39 -9.0981 -39.103 -3.3988 -0 0 -0 -0 0 -0 -0 0 -0 -0 0 -0 
0 0.9566 0 -0 0 -0 2.0928 -13.284 -163.76 0.15241 -2.2543 8.7176 0.15241 -2.2543 8.7176 0.10497 -1.8955 7.3217 -0 0 -0 28.953 7.0242 25.886 12.171 22.606 -9.1889 -0 0 -0 -0 0 -0 9.1198 -37.311 28.888 -6.729 -7.966 -4.6914 -0 0 -0 -1.7003 -16.414 2.4416 0.57488 -18.389 10.092 2.0928 -13.284 -163.76 -6.7465 -11.454 -7.9359 -0 0 -0 -0 0 -0 -0 0 -0 -0 0 -0 2.0928 -13.284 -163.76 -12.675 -32.52 0.59619 -0 0 -0 -0 0 -0 -0 0 -0 -0 0 -0 
0 0.9566 0 -0 0 -0 6.4851 -14.945 -146.19 -1.0755 -3.2055 9.6508 -1.0755 -3.2055 9.6508 -0.9398 -2.6811 8.1092 -0 0 -0 35.273 0.84103 25.143 19.459 21.528 -13.319 -0 0 -0 -0 0 -0 7.7278 -37.667 29.397 -1.4313 -10.53 -4.3365 -0 0 -0 -3.2404 -15.132 -6.6841 -1.9766 -18.115 1.6668 6.4851 -14.945 -146.19 -2.5356 -12.547 -7.0222 -0 0 -0 -0 0 -0 -0 0 -0 -0 0 -0 6.4851 -14.945 -146.19 -11.491 -31.827 6.436 -0 0 -0 -0 0 -0 -0 0 -0 -0 0 -0 
0 0.9566 0 -0 0 -0 11.653 -17.117 -126.87 -3.5566 -3.6185 8.3953 -3.5566 -3.6185 8.3953 -3.0231 -3.0053 7.0658 -0 0 -0 42.224 -5.6776 29.573 25.103 18.296 -18.053 -0 0 -0 -0 0 -0 10.133 -43.458 29.351 2.7577 -11.531 1.1395 -0 0 -0 -2.2695 -15.184 -13.009 -3.3678 -18.35 -5.7052 11.653 -17.117 -126.87 -1.2035 -16.062 -5.3873 -0 0 -0 -0 0 -0 -0 0 -0 -0 0 -0 11.653 -17.117 -126.87 -14.109 -28.727 -0.54378 -0 0 -0 -0 0 -0 -0 0 -0 -0 0 -0 
0 0.9566 0 -0 0 -0 18.28 -14.759 -110.86 -3.76 -4.0315 7.2957 -3.76 -4.0315 7.2957 -3.1925 -3.3549 6.1446 -0 0 -0 45.403 -7.82 34.064 28.627 14.73 -22.013 -0 0 -0 -0 0 -0 12.689 -48.476 28.89 4.8363 -11.258 7.0886 -0 0 -0 -2.8641 -15.066 -17.556 -4.4109 -18.638 -11.267 18.28 -14.759 -110.86 1.7987 -20.628 5.4962 -0 0 -0 -0 0 -0 -0 0 -0 -0 0 -0 18.28 -14.759 -110.86 -13.435 -27.616 -4.8405 -0 0 -0 -0 0 -0 -0 0 -0 -0 0 -0 
0 0.9566 0 -0 0 -0 21.207 -11.423 -97.824 -3.4189 -3.5728 6.3968 -3.4189 -3.5728 6.3968 -2.8984 -2.9759 5.3866 -0 0 -0 45.466 -7.1569 35.523 30.883 13.111 -24.581 -0 0 -0 -0 0 -0 15.077 -52.719 28.357 5.0441 -10.455 11.201 -0 0 -0 -4.0947 -15.229 -21.113 -5.554 -18.518 -15.678 21.207 -11.423 -97.824 3.3333 -22.857 17.92 -0 0 -0 -0 0 -0 -0 0 -0 -0 0 -0 21.207 -11.423 -97.824 -11.758 -29.504 -2.1057 -0 0 -0 -0 0 -0 -0 0 -0 -0 0 -0 
0 0.9566 0 -0 0 -0 27.274 -9.0743 -86.694 -3.5381 -4.8519 5.7242 -3.5381 -4.8519 5.7242 -3.0037 -4.0524 4.8266 -0 0 -0 44.426 -4.8868 35.048 32.527 13.159 -25.781 -0 0 -0 -0 0 -0 18.804 -54.88 26.402 3.2969 -9.8231 14.879 -0 0 -0 -4.5599 -14.311 -24.374 -6.3906 -18.688 -19.648 27.274 -9.0743 -86.694 1.4492 -26.66 26.81 -0 0 -0 -0 0 -0 -0 0 -0 -0 0 -0 27.274 -9.0743 -86.694 -11.784 -36.999 0.42568 -0 0 -0 -0 0 -0 -0 0 -0 -0 0 -0 
0 0.9566 0 -0 0 -0 26.096 -1.9836 -77.713 -1.1157 -3.267 4.9646 -1.1157 -3.267 4.9646 -0.95608 -2.738 4.1738 -0 0 -0 39.699 -2.5159 35.964 33.202 14.201 -23.487 -0 0 -0 -0 0 -0 23.648 -56.809 26.492 0.78408 -10.293 17.529 -0 0 -0 -7.0194 -16.119 -27.37 -6.8484 -19.309 -23.341 26.096 -1.9836 -77.713 3.3545 -22.569 21.144 -0 0 -0 -0 0 -0 -0 0 -0 -0 0 -0 26.096 -1.9836 -77.713 -8.9242 -37.772 -4.3169 -0 0 -0 -0 0 -0 -0 0 -0 -0 0 -0 
0 0.9566 0 -0 0 -0 21.266 1.5543 -69.889 0.98733 0.15644 4.1745 0.98732 0.15644 4.1745 0.83016 0.12659 3.5068 -0 0 -0 33.332 -0.39673 37.848 33.667 15.844 -21.11 -0 0 -0 -0 0 -0 28.002 -57.806 31.315 0.15595 -11.137 12.812 -0 0 -0 -8.9824 -19.212 -29.68 -6.9193 -19.598 -25.982 21.266 1.5543 -69.889 3.1266 -12.315 6.5318 -0 0 -0 -0 0 -0 -0 0 -0 -0 0 -0 21.266 1.5543 -69.889 -8.5433 -33.175 -10.73 -0 0 -0 -0 0 -0 -0 0 -0 -0 0 -0 
0 0.9566 0 -0 0 -0 19.797 4.8542 -63.309 3.025 1.2394 3.6883 3.025 1.2394 3.6883 2.5464 1.0281 3.1026 -0 0 -0 27.028 2.6865 38.159 33.86 17.769 -17.836 -0 0 -0 -0 0 -0 27.1 -55.661 34.491 -2.3476 -10.98 7.1425 -0 0 -0 -10.92 -19.599 -31.187 -7.2078 -19.145 -27.756 19.797 4.8542 -63.309 2.0171 -5.5211 -3.0325 -0 0 -0 -0 0 -0 -0 0 -0 -0 0 -0 19.797 4.8542 -63.309 -7.6667 -33.244 -12.63 -0 0 -0 -0 0 -0 -0 0 -0 -0 0 -0 
0 0.9566 0 -0 0 -0 20.66 9.0692 -58.879 5.0971 0.69772 3.9501 5.0971 0.69772 3.9501 4.2849 0.56253 3.3224 -0 0 -0 21.822 5.962 37.903 34.138 18.945 -13.141 -0 0 -0 -0 0 -0 24.063 -52.327 34.526 -6.5451 -9.4101 8.7622 -0 0 -0 -13.001 -18.887 -32.248 -7.5426 -19.052 -28.689 20.66 9.0692 -58.879 0.4565 -2.367 -7.4251 -0 0 -0 -0 0 -0 -0 0 -0 -0 0 -0 20.66 9.0692 -58.879 -6.5281 -37.112 -11.042 -0 0 -0 -0 0 -0 -0 0 -0 -0 0 -0 
0 0.9566 0 -0 0 -0 20.68 12.571 -54.363 6.6746 0.98341 4.3321 6.6746 0.98341 4.3321 5.6118 0.79229 3.647 -0 0 -0 19.128 6.5829 38.209 35.051 19.265 -11.168 -0 0 -0 -0 0 -0 22.582 -51.26 33.859 -8.6642 -8.2699 10.738 -0 0 -0 -14.801 -19.84 -33.294 -7.8127 -19.961 -29.327 20.68 12.571 -54.363 0.38844 -1.7143 -5.4943 -0 0 -0 -0 0 -0 -0 0 -0 -0 0 -0 20.68 12.571 -54.363 -6.9001 -40.049 -8.3665 -0 0 -0 -0 0 -0 -0 0 -0 -0 0 -0 
0 0.9566 0 -0 0 -0 19.231 15.097 -46.634 8.3921 1.9877 3.3152 8.3921 1.9877 3.3152 7.0568 1.6374 2.8047 -0 0 -0 17.231 5.7992 38.787 35.76 19.331 -10.549 -0 0 -0 -0 0 -0 22.804 -51.485 35.162 -9.409 -7.6633 10.512 -0 0 -0 -17.079 -21.552 -33.132 -8.7613 -20.776 -29.75 19.231 15.097 -46.634 1.9176 -4.7934 -4.0067 -0 0 -0 -0 0 -0 -0 0 -0 -0 0 -0 19.231 15.097 -46.634 -10.396 -41.734 -10.321 -0 0 -0 -0 0 -0 -0 0 -0 -0 0 -0 
0 0.9566 0 -0 0 -0 17.543 16.123 -40.238 10.244 3.7691 2.472 10.244 3.7691 2.472 8.6143 3.1373 2.1219 -0 0 -0 15.079 3.8407 38.737 35.427 18.96 -9.7039 -0 0 -0 -0 0 -0 23.131 -52.65 38.151 -9.9079 -7.2411 10.046 -0 0 -0 -19.709 -23.82 -33.011 -9.7701 -21.546 -29.729 17.543 16.123 -40.238 2.8615 -10.161 -2.1251 -0 0 -0 -0 0 -0 -0 0 -0 -0 0 -0 17.543 16.123 -40.238 -13.012 -41.813 -12.286 -0 0 -0 -0 0 -0 -0 0 -0 -0 0 -0 
0 0.9566 0 -0 0 -0 16.834 16.819 -36.515 11.415 5.0877 2.5996 11.415 5.0877 2.5996 9.5995 4.2405 2.2517 -0 0 -0 14.689 2.153 37.507 35.317 18.475 -9.2832 -0 0 -0 -0 0 -0 22.751 -53.38 39.058 -10.458 -6.5583 10.91 -0 0 -0 -21.711 -24.607 -34.08 -10.491 -21.447 -30.153 16.834 16.819 -36.515 2.3892 -13.4 -0.3543 -0 0 -0 -0 0 -0 -0 0 -0 -0 0 -0 16.834 16.819 -36.515 -15.41 -41.197 -13.859 -0 0 -0 -0 0 -0 -0 0 -0 -0 0 -0 
0 0.9566 0 -0 0 -0 18.675 18.068 -34.723 11.539 5.0008 2.9832 11.539 5.0008 2.9832 9.7064 4.162 2.5736 -0 0 -0 15.736 1.9415 36.358 35.599 18.127 -9.1016 -0 0 -0 -0 0 -0 22.401 -52.26 38.081 -10.025 -5.9812 13.156 -0 0 -0 -22.487 -24.15 -35.087 -11.045 -21.228 -30.833 18.675 18.068 -34.723 0.23876 -16.568 -0.25554 -0 0 -0 -0 0 -0 -0 0 -0 -0 0 -0 18.675 18.068 -34.723 -20.443 -42.263 -18.191 -0 0 -0 -0 0 -0 -0 0 -0 -0 0 -0 
0 0.9566 0 -0 0 -0 18.558 19.024 -31.756 12.345 5.6921 2.3021 12.345 5.6921 2.3021 10.379 4.7501 2.0162 -0 0 -0 15.963 0.66075 37.287 35.802 17.894 -9.2661 -0 0 -0 -0 0 -0 23.011 -51.861 40.426 -8.1073 -5.3756 13.93 -0 0 -0 -23.61 -25.449 -35.186 -11.527 -21.847 -31.153 18.558 19.024 -31.756 -1.4729 -19.335 -9.3638 -0 0 -0 -0 0 -0 -0 0 -0 -0 0 -0 18.558 19.024 -31.756 -23.45 -42.061 -23.593 -0 0 -0 -0 0 -0 -0 0 -0 -0 0 -0 
0 0.9566 0 -0 0 -0 16.41 18.272 -29.034 13.572 7.1984 1.3131 13.572 7.1984 1.3131 11.401 6.0288 1.2179 -0 0 -0 15.747 -1.0567 38.51 35.398 17.462 -9.3845 -0 0 -0 -0 0 -0 21.819 -52.155 43.504 -5.7005 -4.7243 13.924 -0 0 -0 -24.92 -27.382 -35.079 -11.799 -22.371 -31.146 16.41 18.272 -29.034 -1.9112 -20.319 -16.606 -0 0 -0 -0 0 -0 -0 0 -0 -0 0 -0 16.41 18.272 -29.034 -22.949 -39.215 -24.298 -0 0 -0 -0 0 -0 -0 0 -0 -0 0 -0 
0 0.9566 0 -0 0 -0 16.022 16.951 -29.424 13.674 8.2957 1.1476 13.674 8.2957 1.1476 11.484 6.9536 1.0975 -0 0 -0 16.258 -2.1056 38.727 34.874 17.028 -9.6803 -0 0 -0 -0 0 -0 20.227 -52.55 44.377 -3.5139 -3.8316 14.87 -0 0 -0 -25.323 -28.33 -35.498 -11.935 -22.445 -31.219 16.022 16.951 -29.424 -1.351 -20.304 -17.144 -0 0 -0 -0 0 -0 -0 0 -0 -0 0 -0 16.022 16.951 -29.424 -22.891 -37.198 -20.301 -0 0 -0 -0 0 -0 -0 0 -0 -0 0 -0 
0 0.9566 0 -0 0 -0 16.622 16.522 -29.933 13.311 8.5448 0.96475 13.311 8.5448 0.96475 11.176 7.1661 0.9443 -0 0 -0 17.377 -3.2547 38.962 34.32 16.678 -10.958 -0 0 -0 -0 0 -0 20.283 -52.997 44.13 -2.2449 -2.743 16.606 -0 0 -0 -25.141 -28.71 -35.611 -12.081 -22.557 -31.401 16.622 16.522 -29.933 -2.3547 -20.661 -14.324 -0 0 -0 -0 0 -0 -0 0 -0 -0 0 -0 16.622 16.522 -29.933 -24.109 -36.272 -16.941 -0 0 -0 -0 0 -0 -0 0 -0 -0 0 -0 
0 0.9566 0 -0 0 -0 16.582 17.619 -29.815 13.445 7.7355 0.44053 13.445 7.7355 0.44053 11.286 6.4941 0.49271 -0 0 -0 18.096 -3.3486 39.189 33.935 16.313 -11.898 -0 0 -0 -0 0 -0 20.131 -52.399 43.278 -1.2319 -1.9005 17.002 -0 0 -0 -25.018 -28.309 -34.827 -12.219 -22.589 -31.376 16.582 17.619 -29.815 -2.7099 -21.484 -11.94 -0 0 -0 -0 0 -0 -0 0 -0 -0 0 -0 16.582 17.619 -29.815 -24.44 -35.901 -16.045 -0 0 -0 -0 0 -0 -0 0 -0 -0 0 -0 
0 0.9566 0 -0 0 -0 16.354 18.482 -31.343 13.42 6.8642 0.24848 13.42 6.8642 0.24847 11.265 5.7649 0.31732 -0 0 -0 18.565 -2.8981 38.809 33.193 15.891 -11.824 -0 0 -0 -0 0 -0 19.49 -51.787 41.743 -0.35178 -1.3347 16.912 -0 0 -0 -24.611 -27.731 -34.16 -12.092 -22.591 -31.252 16.354 18.482 -31.343 -1.6445 -22.203 -11.038 -0 0 -0 -0 0 -0 -0 0 -0 -0 0 -0 16.354 18.482 -31.343 -23.933 -35.915 -14.905 -0 0 -0 -0 0 -0 -0 0 -0 -0 0 -0 
0 0.9566 0 -0 0 -0 17.157 18.431 -34.85 12.763 6.1662 0.44043 12.763 6.1662 0.44043 10.717 5.1754 0.46262 -0 0 -0 19.082 -2.4386 38.366 32.923 15.967 -12.559 -0 0 -0 -0 0 -0 18.926 -51.483 39.899 -0.11353 -0.9433 17.334 -0 0 -0 -23.74 -27.257 -33.533 -11.855 -22.679 -30.819 17.157 18.431 -34.85 -1.1515 -21.976 -10.575 -0 0 -0 -0 0 -0 -0 0 -0 -0 0 -0 17.157 18.431 -34.85 -23.286 -37.041 -12.731 -0 0 -0 -0 0 -0 -0 0 -0 -0 0 -0 
0 0.9566 0 -0 0 -0 17.141 16.843 -38.284 11.993 6.2039 0.53127 11.993 6.2039 0.53127 10.071 5.2059 0.53381 -0 0 -0 19.841 -2.8698 38.106 32.845 16.108 -13.729 -0 0 -0 -0 0 -0 18.28 -51.811 37.867 -0.56808 -1.0973 17.6 -0 0 -0 -22.985 -27.313 -33.076 -11.734 -22.702 -30.344 17.141 16.843 -38.284 -0.57816 -19.817 -9.711 -0 0 -0 -0 0 -0 -0 0 -0 -0 0 -0 17.141 16.843 -38.284 -20.288 -37.097 -10.316 -0 0 -0 -0 0 -0 -0 0 -0 -0 0 -0 
0 0.9566 0 -0 0 -0 17.98 15.576 -42.042 10.872 5.7392 0.74722 10.872 5.7392 0.74722 9.132 4.813 0.70099 -0 0 -0 21.202 -2.8579 37.88 32.881 15.908 -14.159 -0 0 -0 -0 0 -0 16.696 -51.718 34.585 -0.56279 -1.645 17.491 -0 0 -0 -21.869 -26.751 -32.41 -11.605 -22.52 -29.768 17.98 15.576 -42.042 -0.23148 -18.651 -7.7819 -0 0 -0 -0 0 -0 -0 0 -0 -0 0 -0 17.98 15.576 -42.042 -18.197 -38.742 -10.97 -0 0 -0 -0 0 -0 -0 0 -0 -0 0 -0 
0 0.9566 0 -0 0 -0 17.934 15.215 -45.705 10.467 5.2848 0.85945 10.467 5.2848 0.85945 8.7932 4.4301 0.7869 -0 0 -0 21.817 -2.8394 38.144 32.934 15.467 -14.196 -0 0 -0 -0 0 -0 13.311 -52.04 30.373 0.52253 -2.2472 18.049 -0 0 -0 -21.151 -26.224 -31.5 -11.291 -22.354 -28.981 17.934 15.215 -45.705 1.9598 -17.432 -4.3082 -0 0 -0 -0 0 -0 -0 0 -0 -0 0 -0 17.934 15.215 -45.705 -18.388 -41.545 -16.433 -0 0 -0 -0 0 -0 -0 0 -0 -0 0 -0 
0 0.9566 0 -0 0 -0 15.427 13.39 -48.237 10.513 5.8246 0.21973 10.513 5.8246 0.21972 8.8275 4.8914 0.25663 -0 0 -0 22.001 -3.158 38.988 32.865 14.983 -14.879 -0 0 -0 -0 0 -0 9.109 -52.47 25.099 2.2962 -2.8535 20.007 -0 0 -0 -20.803 -26.529 -30.021 -11.088 -22.032 -27.891 15.427 13.39 -48.237 4.4288 -13.486 -2.1249 -0 0 -0 -0 0 -0 -0 0 -0 -0 0 -0 15.427 13.39 -48.237 -19.591 -40.69 -24.049 -0 0 -0 -0 0 -0 -0 0 -0 -0 0 -0 
0 0.9566 0 -0 0 -0 13.104 11.938 -50.934 10.547 6.1328 -0.34325 10.547 6.1328 -0.34325 8.8512 5.1574 -0.21201 -0 0 -0 22.032 -3.396 39.295 32.588 14.756 -15.143 -0 0 -0 -0 0 -0 3.7308 -51.66 18.067 4.363 -3.5912 21.873 -0 0 -0 -20.493 -26.667 -28.511 -10.942 -21.752 -26.782 13.104 11.938 -50.934 6.5279 -10.705 -1.74 -0 0 -0 -0 0 -0 -0 0 -0 -0 0 -0 13.104 11.938 -50.934 -18.648 -39.627 -27.554 -0 0 -0 -0 0 -0 -0 0 -0 -0 0 -0 
